{"title":"Naruto Shippuuden - 346 [720p] [ENG-SUBBED] [GWC].mkv","uid":9514498,"size":89449544,"categoryP":"video","categoryS":"tv_shows","magnet":"?xt=urn:btih:7b2f28513cea6584c6e124809c3ce71a7d070bbd&amp;dn=Naruto+Shippuuden+-+346+%5B720p%5D+%5BENG-SUBBED%5D+%5BGWC%5D.mkv&amp;tr=udp%3A%2F%2Ftracker.openbittorrent.com%3A80&amp;tr=udp%3A%2F%2Fopen.demonii.com%3A1337&amp;tr=udp%3A%2F%2Ftracker.coppersurfer.tk%3A6969&amp;tr=udp%3A%2F%2Fexodus.desync.com%3A6969","seeders":1,"leechers":0,"uploader":"canc232","files":1,"time":1390491084,"description":"Naruto Shippuuden - 346 [720p] [ENG-SUBBED] [GWC] \nNaruto Shippuuden Ep:346 - World of Dreams\n\n\nTHUMBNAIL IMAGE : &lt;a href=&quot;\nhttp://img690.imageshack.us/img690/7671/sech.jpg&quot; rel=&quot;nofollow&quot; target=&quot;_NEW&quot;&gt;\nhttp://img690.imageshack.us/img690/7671/sech.jpg&lt;/a&gt;\n\n\nMEDIA INFO :\nGeneral  \nFormat : Matroska \nFile size : 85.3 MiB \nDuration : 21mn 39s \nOverall bit rate : 551 Kbps \nWriting application : mkvmerge v6.6.0 ('The Edge Of The In Between')\n\nVideo \nFormat : AVC \nFormat profile : &lt;a class=&quot;__cf_email__&quot; href=&quot;/cdn-cgi/l/email-protection&quot; data-cfemail=&quot;a9e1c0cec1e9e59d8798&quot;&gt;[email&amp;#160;protected]&lt;/a&gt;&lt;script cf-hash='f9e31' type=&quot;text/javascript&quot;&gt;\n/* &lt;![CDATA[ */!function(){try{var t=&quot;currentScript&quot;in document?document.currentScript:function(){for(var t=document.getElementsByTagName(&quot;script&quot;),e=t.length;e--;)if(t[e].getAttribute(&quot;cf-hash&quot;))return t[e]}();if(t&amp;&amp;t.previousSibling){var e,r,n,i,c=t.previousSibling,a=c.getAttribute(&quot;data-cfemail&quot;);if(a){for(e=&quot;&quot;,r=parseInt(a.substr(0,2),16),n=2;a.length-n;n+=2)i=parseInt(a.substr(n,2),16)^r,e+=String.fromCharCode(i);e=document.createTextNode(e),c.parentNode.replaceChild(e,c)}}}catch(u){}}();/* ]]&gt; */&lt;/script&gt; \nFormat settings, CABAC : Yes \nFormat settings, ReFrames : 11 frames \nDuration : 21mn 39s \nBit rate : 484 Kbps \nNominal bit rate : 510 Kbps \nWidth : 1 280 pixels \nHeight : 720 pixels \nDisplay aspect ratio : 16:9 \nFrame rate : 23.976 fps \nStream size : 74.9 MiB (88%) \nTitle : Naruto Shippuuden - 346 [720p] [ENG-SUBBED] [GWC] \nWriting library : x264 core\n\nAudio \nFormat : Vorbis \nDuration : 21mn 39s \nBit rate : 56.0 Kbps \nChannel(s) : 2 channels \nSampling rate : 44.1 KHz \nStream size : 8.68 MiB (10%) \nWriting library : aoTuV 20110424\n\nText \nFormat : UTF-8 \nCodec ID/Info : UTF-8 Plain Text \nTitle : [GWC] \nLanguage : English","torrent":{"xt":"urn:btih:7b2f28513cea6584c6e124809c3ce71a7d070bbd","amp;dn":"Naruto+Shippuuden+-+346+%5B720p%5D+%5BENG-SUBBED%5D+%5BGWC%5D.mkv","amp;tr":["udp%3A%2F%2Ftracker.openbittorrent.com%3A80","udp%3A%2F%2Fopen.demonii.com%3A1337","udp%3A%2F%2Ftracker.coppersurfer.tk%3A6969","udp%3A%2F%2Fexodus.desync.com%3A6969"],"infoHash":"7b2f28513cea6584c6e124809c3ce71a7d070bbd","infoHashBuffer":{"type":"Buffer","data":[123,47,40,81,60,234,101,132,198,225,36,128,156,60,231,26,125,7,11,189]},"announce":[],"urlList":[]}}